<svg xmlns="http://www.w3.org/2000/svg" viewBox="0 0 800 650"><defs>
 <linearGradient id="fabric" x1="0" y1="0" x2="1" y2="1"><stop stop-color="#78806d"/><stop offset=".35" stop-color="#78806d"/><stop offset=".52" stop-color="#fff" stop-opacity=".18"/><stop offset=".64" stop-color="#78806d"/><stop offset="1" stop-color="#201818" stop-opacity=".45"/></linearGradient>
 <radialGradient id="back"><stop stop-color="#fff" stop-opacity=".5"/><stop offset="1" stop-color="#fff" stop-opacity="0"/></radialGradient>
 <linearGradient id="silk" x1="0" y1="0" x2="1" y2=".7"><stop stop-color="#fbf4e9"/><stop offset=".3" stop-color="#e1d0bc"/><stop offset=".49" stop-color="#fcf7ee"/><stop offset=".65" stop-color="#cbbba9"/><stop offset=".8" stop-color="#f8eddd"/><stop offset="1" stop-color="#d6c1ac"/></linearGradient>
 <pattern id="lace" width="38" height="38" patternUnits="userSpaceOnUse"><path d="M19 5c-11-12-22 3-10 10-14 4-8 19 4 15 0 13 16 13 14 0 14 2 17-13 4-16C41 3 25-6 19 5Z" fill="none" stroke="#f5dace" stroke-width=".9" opacity=".56"/><path d="M19 10v16m-8-9 16 8m0-8-16 8" stroke="#f8e5d9" stroke-width=".7" opacity=".6"/><circle cx="19" cy="19" r="3" fill="#f9eadc" opacity=".38"/></pattern>
 <filter id="shadow" x="-50%" y="-50%" width="200%" height="200%"><feDropShadow dx="8" dy="18" stdDeviation="12" flood-color="#32231f" flood-opacity=".19"/></filter>
 <filter id="grain"><feTurbulence type="fractalNoise" baseFrequency=".7" numOctaves="3" stitchTiles="stitch"/><feColorMatrix type="saturate" values="0"/><feComponentTransfer><feFuncA type="linear" slope=".055"/></feComponentTransfer><feBlend in="SourceGraphic" mode="multiply"/></filter>
 </defs><path fill="#bfc2ad" d="M0 0h800v650H0z"/><path d="M490-90Q110 250 620 710" stroke="#fff" stroke-opacity=".13" stroke-width="140" fill="none"/><g transform="translate(245 -62) rotate(13 300 300) scale(.91)"><g transform="translate(40 0) scale(.87)"><g filter="url(#shadow)"><path d="M221 172 214 42Q218 27 224 42L239 180M361 180 376 42Q382 27 386 42L379 172" fill="none" stroke="url(#fabric)" stroke-width="9"/><path d="M217 150Q260 180 300 207Q340 180 383 150Q398 300 419 351Q365 386 300 377Q235 386 181 351Q202 300 217 150Z" fill="url(#fabric)"/><path d="M217 150Q260 180 300 207Q340 180 383 150L387 187Q340 221 300 237Q260 221 213 187Z" fill="url(#lace)"/><path d="M231 205Q247 330 205 354M368 205Q352 330 394 354M295 240Q323 310 300 377" stroke="#fff" stroke-opacity=".17" stroke-width="3" fill="none"/><path d="M184 351Q242 383 300 369Q356 383 416 351" fill="none" stroke="#f1daca" stroke-opacity=".5" stroke-width="2"/></g><g filter="url(#shadow)"><path d="M179 448Q300 432 421 448L447 583 326 599 300 525 274 599 153 583Z" fill="url(#fabric)"/><path d="M181 450Q300 436 419 450M154 576 274 591M326 591 446 576" fill="none" stroke="#ebdbc4" stroke-width="4" stroke-opacity=".5"/><path d="M300 448v72" stroke="#e0ccb7" stroke-width="2"/><path d="M301 452q-26-26-29-8t29 9q27-27 31-9t-31 10" fill="none" stroke="#ead7c0" stroke-width="3"/></g></g></g><path fill="#bfc2ad" opacity=".12" filter="url(#grain)" d="M0 0h800v650H0z"/></svg>